ffmpeg version 3.4.8-0ubuntu0.2 Copyright (c) 2000-2020 the FFmpeg developers
  built with gcc 7 (Ubuntu 7.5.0-3ubuntu1~18.04)
  configuration: --prefix=/usr --extra-version=0ubuntu0.2 --toolchain=hardened --libdir=/usr/lib/x86_64-linux-gnu --incdir=/usr/include/x86_64-linux-gnu --enable-gpl --disable-stripping --enable-avresample --enable-avisynth --enable-gnutls --enable-ladspa --enable-libass --enable-libbluray --enable-libbs2b --enable-libcaca --enable-libcdio --enable-libflite --enable-libfontconfig --enable-libfreetype --enable-libfribidi --enable-libgme --enable-libgsm --enable-libmp3lame --enable-libmysofa --enable-libopenjpeg --enable-libopenmpt --enable-libopus --enable-libpulse --enable-librubberband --enable-librsvg --enable-libshine --enable-libsnappy --enable-libsoxr --enable-libspeex --enable-libssh --enable-libtheora --enable-libtwolame --enable-libvorbis --enable-libvpx --enable-libwavpack --enable-libwebp --enable-libx265 --enable-libxml2 --enable-libxvid --enable-libzmq --enable-libzvbi --enable-omx --enable-openal --enable-opengl --enable-sdl2 --enable-libdc1394 --enable-libdrm --enable-libiec61883 --enable-chromaprint --enable-frei0r --enable-libopencv --enable-libx264 --enable-shared
  libavutil      55. 78.100 / 55. 78.100
  libavcodec     57.107.100 / 57.107.100
  libavformat    57. 83.100 / 57. 83.100
  libavdevice    57. 10.100 / 57. 10.100
  libavfilter     6.107.100 /  6.107.100
  libavresample   3.  7.  0 /  3.  7.  0
  libswscale      4.  8.100 /  4.  8.100
  libswresample   2.  9.100 /  2.  9.100
  libpostproc    54.  7.100 / 54.  7.100
[rawvideo @ 0x55a6c40cba20] Estimating duration from bitrate, this may be inaccurate
Input #0, rawvideo, from '../../SVC-Encoder-20220109T061506Z-001/SVC-Encoder/Dataset/RollerCoaster/ERP_8x8/tile_yuv/Tile_20_480x240.yuv':
  Duration: 00:00:10.00, start: 0.000000, bitrate: 41472 kb/s
    Stream #0:0: Video: rawvideo (I420 / 0x30323449), yuv420p, 480x240, 41472 kb/s, 30 tbr, 30 tbn, 30 tbc
Stream mapping:
  Stream #0:0 -> #0:0 (rawvideo (native) -> h264 (libx264))
Press [q] to stop, [?] for help
[libx264 @ 0x55a6c40d8c60] using cpu capabilities: MMX2 SSE2Fast LZCNT SSSE3 SSE4.2 AVX
[libx264 @ 0x55a6c40d8c60] profile High, level 2.1
Output #0, rawvideo, to 'RollerCoaster_Tile_20_480x240_x264_QP_24.h264':
  Metadata:
    encoder         : Lavf57.83.100
    Stream #0:0: Video: h264 (libx264), yuv420p, 480x240, q=-1--1, 30 fps, 30 tbn, 30 tbc
    Metadata:
      encoder         : Lavc57.107.100 libx264
    Side data:
      cpb: bitrate max/min/avg: 0/0/0 buffer size: 0 vbv_delay: -1
frame=  300 fps=0.0 q=30.0 LPSNR=Y:inf U:inf V:inf *:inf size=      13kB time=00:00:09.93 bitrate=  10.3kbits/s speed=40.3x    
video:13kB audio:0kB subtitle:0kB other streams:0kB global headers:0kB muxing overhead: 0.000000%
[libx264 @ 0x55a6c40d8c60] frame I:2     Avg QP:23.51  size:   955  PSNR Mean Y:54.82 U:56.41 V:56.75 Avg:55.33 Global:55.33
[libx264 @ 0x55a6c40d8c60] frame P:76    Avg QP:23.52  size:   100  PSNR Mean Y:53.96 U:55.11 V:56.02 Avg:54.42 Global:54.40
[libx264 @ 0x55a6c40d8c60] frame B:222   Avg QP:29.61  size:    15  PSNR Mean Y:53.91 U:55.05 V:55.99 Avg:54.37 Global:54.35
[libx264 @ 0x55a6c40d8c60] consecutive B-frames:  0.7%  2.0%  0.0% 97.3%
[libx264 @ 0x55a6c40d8c60] mb I  I16..4: 89.0% 11.0%  0.0%
[libx264 @ 0x55a6c40d8c60] mb P  I16..4:  3.1%  1.0%  0.0%  P16..4:  4.6%  0.4%  0.0%  0.0%  0.0%    skip:90.9%
[libx264 @ 0x55a6c40d8c60] mb B  I16..4:  0.0%  0.0%  0.0%  B16..8:  0.2%  0.0%  0.0%  direct: 0.0%  skip:99.8%  L0: 9.4% L1:90.6% BI: 0.0%
[libx264 @ 0x55a6c40d8c60] 8x8 transform intra:19.8% inter:100.0%
[libx264 @ 0x55a6c40d8c60] coded y,uvDC,uvAC intra: 0.4% 12.3% 0.0% inter: 0.0% 0.3% 0.0%
[libx264 @ 0x55a6c40d8c60] i16 v,h,dc,p: 43% 30% 16% 11%
[libx264 @ 0x55a6c40d8c60] i8 v,h,dc,ddl,ddr,vr,hd,vl,hu:  5% 15% 79%  0%  0%  0%  0%  0%  0%
[libx264 @ 0x55a6c40d8c60] i8c dc,h,v,p: 70% 16% 13%  0%
[libx264 @ 0x55a6c40d8c60] Weighted P-Frames: Y:0.0% UV:0.0%
[libx264 @ 0x55a6c40d8c60] ref P L0: 88.8%  2.7%  6.9%  1.7%
[libx264 @ 0x55a6c40d8c60] ref B L0: 86.7% 13.3%
[libx264 @ 0x55a6c40d8c60] ref B L1: 92.4%  7.6%
[libx264 @ 0x55a6c40d8c60] PSNR Mean Y:53.924 U:55.072 V:56.001 Avg:54.387 Global:54.371 kb/s:10.28
